<?xml version="1.0" encoding="utf-8"?>
<!-- Generator: Adobe Illustrator 21.0.1, SVG Export Plug-In . SVG Version: 6.00 Build 0)  -->
<svg version="1.1" id="Слой_1" xmlns="http://www.w3.org/2000/svg" xmlns:xlink="http://www.w3.org/1999/xlink" x="0px" y="0px"
	 viewBox="0 0 512 512" style="enable-background:new 0 0 512 512;" xml:space="preserve">
<style type="text/css">
	.st0{fill:#4C4C4C;}
</style>
<g>
	<path class="st0" d="M444.7,257.1c-0.1,103.3-84.5,187.6-187.7,187.6c-103.5,0-188.3-84.8-187.6-188.1
		c0.7-104.3,84-187.3,187.9-187.2C361.5,69.6,444,153.1,444.7,257.1z M256.8,321.3c35.8,0,64.4-28.5,64.5-64.2
		c0-35.7-28.6-64.3-64.4-64.3c-35.7,0-64.2,28.7-64.2,64.5C192.7,292.6,221.4,321.3,256.8,321.3z M102.3,216.6
		c2,0.6,3.8,0.9,5.5,1.6c4.8,2,6.7,0.5,8.3-4.5c14.2-44.5,43.1-75.6,86.2-93.7c4.4-1.8,8.9-3.4,13.6-5.1c-1.2-4-2.3-7.6-3.3-11.1
		C171.6,105.9,108.7,170.2,102.3,216.6z M129.6,223.6c2.4,0.6,4.6,0.9,6.5,1.7c4.2,1.8,5.7,0.1,6.9-3.9c10.5-32.9,31.4-57,62.4-72.2
		c5.9-2.9,12.2-5.1,18.7-7.7c-1.2-3.9-2.3-7.6-3.5-11.3C176.2,140.9,137.8,182.6,129.6,223.6z M228.7,156.9
		c-37.2,8.9-67,44.1-71.8,73.4c1.8,0.6,3.8,1,5.6,1.7c4.6,1.9,6.3,0.3,7.9-4.4c9.7-28,28.9-46.9,56.6-57.2c1.7-0.6,3.3-1.2,5.3-1.9
		C231,164.4,229.9,160.8,228.7,156.9z"/>
	<path class="st0" d="M241.3,257.1c-0.1-8.3,7-15.6,15.4-15.8c8.4-0.2,16,7.3,16,15.8c-0.1,8.4-7.3,15.6-15.7,15.6
		C248.7,272.7,241.4,265.5,241.3,257.1z"/>
</g>
</svg>
