<?xml version="1.0" encoding="utf-8"?>
<!-- Generator: Adobe Illustrator 21.0.1, SVG Export Plug-In . SVG Version: 6.00 Build 0)  -->
<svg version="1.1" id="Слой_1" xmlns="http://www.w3.org/2000/svg" xmlns:xlink="http://www.w3.org/1999/xlink" x="0px" y="0px"
	 viewBox="0 0 512 512" style="enable-background:new 0 0 512 512;" xml:space="preserve">
<style type="text/css">
	.st0{fill:#4C4C4C;}
</style>
<g>
	<path class="st0" d="M176.5,105c12.6-0.2,22.1,7.7,24.2,19.6c12.4,70.7,24.8,141.4,37.3,212.1c2.4,13.7,4.9,27.5,7.4,41.2
		c2.3,12.4-5.7,24.6-18.1,26.9c-26.3,4.8-52.7,9.4-79,14c-14.1,2.5-28.2,4.8-42.2,7.4c-13,2.4-25.2-5.5-27.5-18.5
		c-6.8-38.1-13.5-76.3-20.2-114.4c-7.1-40.6-14.3-81.2-21.4-121.8c-1.1-6.2-2.4-12.4-3.4-18.6c-2-12.4,6.6-24.2,19.5-26.5
		c39.6-7,79.2-14,118.8-21C173.5,105.1,175.3,105.1,176.5,105z M100.9,403.9c22.5-4,44.4-7.8,66.8-11.8c-1.9-10.9-3.8-21-5.6-31.4
		c-13.7,2.4-26.6,4.6-39.8,6.9c-0.6-2.8-1.2-5.2-1.5-7.7c-1.6-11.4-3.8-8.4,7.6-10.7c10.1-2,20.2-3.7,30.8-5.6
		c-1.1-6-2.1-11.4-3.1-16.9c-13.7,2.4-26.4,4.6-40,7c-0.8-5.5-1.6-10.8-2.4-16.2c4-1,7.9-1.9,11.9-2.9c1-0.2,2-0.3,2.9-0.5
		c8.1-1.5,16.2-2.9,24.7-4.5c-2.2-12.4-4.3-24.1-6.5-36.5c-13.7,2.3-26.8,4.5-40.1,6.8c-1-6.1-1.8-11.2-2.7-16.8
		c12.2-2.1,23.6-4.2,35.1-6.1c3.6-0.6,4.8-2,4.1-5.6c-1.8-9.3-3.4-18.6-5-28c-0.5-3.1-1.7-4.1-5-3.4c-11.7,2.3-23.5,4.2-35.8,6.4
		c-1-5.6-2-10.9-3-16.5c1.3-0.4,2.2-0.7,3.1-0.9c11.1-2,22.3-3.9,33.4-6.1c1.2-0.2,3.2-1.9,3.1-2.7c-0.6-4.9-1.7-9.7-2.7-14.8
		c-13.5,2.4-26.4,4.6-39.8,6.9c-1-5.6-2-10.9-3-16.5c1.4-0.4,2.5-0.7,3.6-0.9c11-2,21.9-3.9,32.8-6c1.2-0.2,3.1-2.2,3-3.1
		c-1.4-9.3-3.2-18.6-5-28.8c-22.3,3.9-44.3,7.8-66.8,11.7C71,234.2,85.9,318.6,100.9,403.9z"/>
	<path class="st0" d="M391.3,427.9c-5.9-1.5-14.7-3.7-23.6-5.9c-16.3-4.1-32.6-8.1-48.8-12.3c-13.2-3.4-20.4-15.5-17-28.8
		c20.8-83,41.6-165.9,62.5-248.9c3.4-13.4,15.3-20.7,28.6-17.4c23.4,5.7,46.7,11.6,70,17.6c13.1,3.4,20.1,15.3,16.9,28.4
		c-17.5,69.9-35.1,139.9-52.6,209.8c-3.2,12.9-6.4,25.8-9.7,38.7C414.6,421,406,428,391.3,427.9z M370.6,206.2c0,8.4,6.5,15,14.7,15
		c7.8,0,14.6-6.8,14.8-14.6c0.1-8.1-6.6-14.8-14.9-14.8C376.9,191.7,370.6,198,370.6,206.2z M449.3,193.2
		c0.1-8.4-6.4-14.9-14.7-14.9c-8,0-14.6,6.6-14.7,14.6c-0.1,8,6.9,15,14.9,15C442.8,207.9,449.2,201.3,449.3,193.2z M361.2,316.3
		c8.1,0,14.7-6.4,14.9-14.4c0.2-7.9-6.8-15.1-14.8-15.1c-8.2,0-14.7,6.7-14.6,15.1C346.7,310.1,353,316.3,361.2,316.3z M437.3,240.6
		c-0.1-8-6.6-14.6-14.5-14.7c-8-0.1-15,7-15,15c0.1,8.1,6.9,14.6,15.2,14.5C431.2,255.2,437.4,248.8,437.3,240.6z M410.6,273.7
		c-8.3,0.1-15,6.9-14.8,15c0.2,7.9,7.1,14.5,14.9,14.5c8.2,0,14.7-6.8,14.5-15.1C425.2,279.9,418.8,273.7,410.6,273.7z M334.6,349.1
		c-0.1,8.3,6.5,15.1,14.7,15c7.8,0,14.6-6.8,14.8-14.6c0.2-7.9-6.4-14.7-14.4-14.8C341.1,334.6,334.7,340.7,334.6,349.1z
		 M358.6,254.1c0,8.1,6.4,14.6,14.4,14.7c8.1,0.1,15.1-6.8,15-14.9c0-7.8-6.7-14.6-14.7-14.7C365.2,239,358.6,245.7,358.6,254.1z
		 M413.4,336c0-8.2-6.3-14.6-14.4-14.7c-8.1-0.1-15.1,6.8-15,14.8c0.1,8,7.2,15,15.2,14.8C407.1,350.7,413.4,344.1,413.4,336z"/>
	<path class="st0" d="M241.5,87.2c7.2,93.1,14.3,184.8,21.4,276.6c-0.2,0-0.4,0.1-0.6,0.1c-2.3-13.1-4.7-26.1-7-39.2
		c-6.9-38.8-13.7-77.6-20.5-116.4c-5.4-30.8-11-61.5-16.3-92.3c-0.3-1.6,0-3.9,1-5.1C226.4,103.2,233.6,95.6,241.5,87.2z"/>
	<path class="st0" d="M295.9,86.4c-7.1,94.6-14.1,187.8-21.1,280.9c-0.1,0-0.2,0-0.3,0c-1.2-55.5-2.4-110.9-3.6-166.4
		c-0.6-29.5-1.3-59-2.1-88.4c-0.1-3.3,0.8-5.5,3.5-7.6C280,99.2,287.3,93.2,295.9,86.4z"/>
	<path class="st0" d="M350.3,95c-21.4,91.3-42.4,181.3-63.5,271.3c-0.2,0-0.4-0.1-0.5-0.1c2.1-16.1,4.2-32.3,6.4-48.4
		c3.2-23.9,6.4-47.8,9.6-71.7c3.2-23.7,6.3-47.5,9.4-71.2c2.5-19.1,5.2-38.2,7.6-57.4c0.5-3.8,1.7-6.4,5.3-8.2
		C332.8,105.1,340.9,100.3,350.3,95z"/>
</g>
</svg>
