<?xml version="1.0" encoding="utf-8"?>
<!-- Generator: Adobe Illustrator 21.0.1, SVG Export Plug-In . SVG Version: 6.00 Build 0)  -->
<svg version="1.1" id="Слой_1" xmlns="http://www.w3.org/2000/svg" xmlns:xlink="http://www.w3.org/1999/xlink" x="0px" y="0px"
	 viewBox="0 0 512 512" style="enable-background:new 0 0 512 512;" xml:space="preserve">
<style type="text/css">
	.st0{fill:#4C4C4C;}
</style>
<g>
	<path class="st0" d="M256.5,427.8c-56.2,0-112.3,0-168.5,0c-22.1,0-39.2-13.7-43.5-34.5c-0.7-3.2-0.7-6.6-0.7-9.9
		c0-84.3,0.1-168.6,0.2-253c0-25.8,18.3-44,44.2-44c112.7,0,225.3,0,338,0c25.8,0,44.2,18.3,44.2,44c0,84.5,0,169,0,253.5
		c0,25.7-18.4,43.9-44.2,44C369.5,427.8,313,427.8,256.5,427.8z M411.6,193.2c0,32.2,0,63.9,0,95.6c-8.2,0-15.8,0-24.1,0
		c0-25,0-49.7,0-74.3c-9.1,0-17.6,0-26.6,0c0,25,0,49.7,0,74.4c-8.2,0-15.8,0-23.9,0c0-32,0-63.7,0-95.5c-9.1,0-17.7,0-26.5,0
		c-0.1,1.2-0.2,2.2-0.2,3.1c0,34.1-0.1,68.3,0,102.4c0.1,13.2,9.3,22.1,22.5,22.1c27.3,0,54.6,0,82,0c14.9,0,23.4-8.5,23.4-23.6
		c0-33,0-66,0-98.9c0-1.7-0.1-3.5-0.2-5.3C429.1,193.2,420.8,193.2,411.6,193.2z M181.8,321c0-43,0-85.4,0-127.7
		c-8.8,0-17.3,0-26.3,0c0,24.4,0,48.5,0,74.1c-2.2-3-3.4-4.7-4.7-6.5c-15.3-21.4-30.6-42.8-45.9-64.2c-1.1-1.5-2.8-3.5-4.3-3.5
		c-8.1-0.3-16.2-0.2-24.6-0.2c0,42.9,0,85.2,0,127.6c8.9,0,17.4,0,26.4,0c0-24.5,0-48.5,0-73.7c1.8,2.4,3,3.7,4,5.2
		c15.9,21.8,31.7,43.6,47.7,65.4c1.1,1.5,3.2,3.3,4.8,3.4C166.5,321.2,174,321,181.8,321z M288.8,294.1c-17.9,0-35.3,0-52.7,0
		c0-8.1,0-15.7,0-23.8c17.7,0,35.1,0,52.5,0c0-9.2,0-17.7,0-26.7c-17.7,0-34.9,0-52.5,0c0-8.1,0-15.8,0-24c17.8,0,35.2,0,52.5,0
		c0-9.1,0-17.7,0-26.3c-28.4,0-56.5,0-84.5,0c0,42.7,0,85,0,127.4c28.4,0,56.5,0,84.7,0C288.8,311.9,288.8,303.4,288.8,294.1z"/>
</g>
</svg>
