<?xml version="1.0" encoding="utf-8"?>
<!-- Generator: Adobe Illustrator 21.0.1, SVG Export Plug-In . SVG Version: 6.00 Build 0)  -->
<svg version="1.1" id="Слой_1" xmlns="http://www.w3.org/2000/svg" xmlns:xlink="http://www.w3.org/1999/xlink" x="0px" y="0px"
	 viewBox="0 0 512 512" style="enable-background:new 0 0 512 512;" xml:space="preserve">
<style type="text/css">
	.st0{fill:#4C4C4C;}
</style>
<g>
	<path class="st0" d="M469.9,179.4c-2.4,5-6.4,6.5-11.8,6.5c-35.6-0.1-71.3-0.1-106.9-0.1c-1.6,0-3.3,0-5.5,0c0,2,0,3.6,0,5.2
		c0,51.2,0,102.3,0,153.5c0,20.1-6.7,37.6-21.3,51.5c-20.8,19.8-45.5,25.8-72.6,16.5c-27.2-9.3-43.5-29.1-47.4-57.8
		c-3.7-28,6.5-50.9,29.4-67.1c23-16.2,47.8-17.4,73.1-5c0.8,0.4,1.7,0.9,3.1,1.6c0-2,0-3.4,0-4.9c0-56.8,0-113.7,0-170.5
		c0-9.1,2.8-11.8,12-11.8c45.1,0,90.1,0.1,135.2-0.1c5.4,0,9.7,1.2,12.6,5.9C469.9,128.4,469.9,153.9,469.9,179.4z"/>
	<path class="st0" d="M159.1,97c34.8,0,69.6,0,104.4,0c8.1,0,11.1,2.9,11.1,10.9c0,4.2,0,8.3,0,12.5c0,9.5-2.6,12.2-12,12.2
		c-19.8,0-39.6,0-59.5,0c-48.9,0-97.8,0-146.8,0c-9.7,0-12.4-2.7-12.4-12.2c0-4.3,0-8.6,0-12.9c0-7.2,3.3-10.4,10.4-10.4
		C89.2,97,124.2,97,159.1,97z"/>
	<path class="st0" d="M159.1,221.2c-34.5,0-69,0-103.5,0c-8.9,0-11.7-2.7-11.7-11.6c0-4.4,0-8.9,0-13.3c0-7.2,3.2-10.4,10.4-10.4
		c38.5,0,77,0,115.6,0c31.2,0,62.4,0,93.5,0c8.4,0,11.2,2.8,11.2,11.2c0,4.4,0,8.9,0,13.3c0,7.9-2.9,10.8-10.8,10.8
		C228.9,221.2,194,221.2,159.1,221.2z"/>
	<path class="st0" d="M106.1,310c-17.2,0-34.4,0-51.5,0c-7.4,0-10.6-3.2-10.7-10.6c0-4.8,0-9.7,0-14.5c0-7.1,3.4-10.4,10.9-10.4
		c25.9,0,51.8,0,77.7,0c8.3,0,16.6,0,24.9,0c7.4,0,10.6,3.2,10.6,10.7c0,5.1,0.1,10.3,0,15.4c-0.1,6.1-3.5,9.5-9.6,9.5
		C141,310.1,123.6,310,106.1,310z"/>
	<path class="st0" d="M106.3,363.3c17,0,34.1,0,51.1,0c7.5,0,10.6,3.1,10.6,10.6c0,5.1,0.1,10.3,0,15.4c-0.1,6.1-3.4,9.4-9.6,9.6
		c-3.7,0.1-7.5,0-11.2,0c-30.5,0-60.9,0-91.4,0c-9,0-11.9-2.9-11.9-11.9c0-4.7-0.1-9.4,0-14.1c0.1-6,3.6-9.5,9.6-9.5
		C71.1,363.2,88.7,363.3,106.3,363.3z"/>
</g>
</svg>
