<?xml version="1.0" encoding="utf-8"?>
<!-- Generator: Adobe Illustrator 21.0.1, SVG Export Plug-In . SVG Version: 6.00 Build 0)  -->
<svg version="1.1" id="Слой_1" xmlns="http://www.w3.org/2000/svg" xmlns:xlink="http://www.w3.org/1999/xlink" x="0px" y="0px"
	 viewBox="0 0 512 512" style="enable-background:new 0 0 512 512;" xml:space="preserve">
<style type="text/css">
	.st0{fill:#4C4C4C;}
</style>
<g>
	<path class="st0" d="M407.5,256.6c0,58.8,0,117.6,0,176.4c0,2.7,0.1,5.4-0.2,8c-1,8.7-6.6,13.7-15.4,13.7c-40.3,0-80.6,0-121,0
		c-49,0-98,0-147,0c-12,0-17.5-5.4-17.5-17.3c0-120.5,0-240.9,0-361.4c0-11.3,5.7-16.9,16.9-16.9c89,0,178,0,266.9,0
		c11.1,0,16.6,5.4,16.6,16.5c0,60.3,0,120.6,0,180.9C407.1,256.6,407.3,256.6,407.5,256.6z M257,416.3c61.1,0,111-49.7,111.1-110.7
		c0.1-61.2-49.9-111.1-111.2-111.1c-61.1,0-111,49.7-111.1,110.7C145.8,366.5,195.7,416.3,257,416.3z M257.1,97.7
		c-21.1,0-38.3,17.1-38.2,37.9c0.1,20.8,17.1,37.6,38,37.6c21.1,0,38.3-17.1,38.2-37.9C295,114.6,277.9,97.7,257.1,97.7z"/>
	<path class="st0" d="M349.1,305.3c0.1,50.9-41.2,92.4-91.8,92.5c-51.1,0-92.5-41.3-92.4-92.4c0.1-50.8,41.1-92,91.6-92.1
		C307.8,213.1,349,254.1,349.1,305.3z M196.2,305.1c0-0.1,0-0.2,0-0.3c-0.8,0-1.7,0-2.5,0c-15.1,0.3-14-2.8-11.3,13.8
		c6.5,40,45.2,67.8,86,61.7c34.8-5.2,63.3-36.4,64.3-71.8c0.1-2.9-1-3.8-3.7-3.8c-7.3,0.1-14.7,0.1-22,0c-3.3-0.1-4.1,1.2-4.4,4.4
		c-1.7,21.4-19.2,39.4-39.3,41.7c-26.2,3-45.5-13.9-50.7-33.6c-1.1-4-0.7-10.1-3.3-11.7C206.2,303.6,200.7,305.1,196.2,305.1z
		 M286.4,305.2c-0.1-16.3-13.3-29.5-29.6-29.4c-16.2,0.1-29.2,13.4-29.2,29.8c0.1,16.3,13.5,29.6,29.6,29.4
		C273.4,334.9,286.4,321.6,286.4,305.2z"/>
	<path class="st0" d="M257.5,117.2c10,0.2,17.8,8.3,17.7,18.4c-0.1,10.3-8.1,18.3-18.4,18.2c-10.2-0.1-18.2-8.4-18-18.6
		C239,124.8,247.1,117.1,257.5,117.2z"/>
</g>
</svg>
