<?xml version="1.0" encoding="utf-8"?>
<!-- Generator: Adobe Illustrator 21.0.1, SVG Export Plug-In . SVG Version: 6.00 Build 0)  -->
<svg version="1.1" id="Слой_1" xmlns="http://www.w3.org/2000/svg" xmlns:xlink="http://www.w3.org/1999/xlink" x="0px" y="0px"
	 viewBox="0 0 512 512" style="enable-background:new 0 0 512 512;" xml:space="preserve">
<style type="text/css">
	.st0{fill:#4C4C4C;}
</style>
<g>
	<path class="st0" d="M131.3,462.1c-20.8,0-35-18.6-29.8-38.8c10.2-39.6,20.2-79.3,30.4-119c0.8-3.2,0-5.1-2.5-7.2
		C99,271.7,68.8,246,38.5,220.5c-9.7-8.2-14.3-18.4-12.1-31c2.5-14.4,13-23.9,27.8-25c17.6-1.4,35.2-2.3,52.9-3.5
		c23.3-1.5,46.5-3.2,69.8-4.5c4.3-0.2,5.9-2.1,7.3-5.7c14.8-36.5,29.7-73,44.7-109.5c6.9-16.7,23-24.6,39.3-19.5
		c8.8,2.8,15,8.5,18.4,17c15.2,38.2,30.5,76.3,45.5,114.5c1.5,3.9,3.7,5.2,7.6,5.4c38.6,2.7,77.1,5.5,115.6,8.3
		c19.2,1.4,31.7,12.5,33,29.7c0.8,10.4-3.1,18.8-11.2,25.4c-31.4,26-62.7,52.2-94.2,78.2c-3.1,2.5-3.6,4.7-2.7,8.4
		c9.5,38.3,18.9,76.6,28.3,114.8c5,20.4-6.9,38.4-27.1,40.8c-6.7,0.8-12.8-1.1-18.5-4.7c-34.6-21.9-69.3-43.7-103.8-65.7
		c-3.3-2.1-5.5-2.2-8.9-0.1c-33.3,20.8-66.7,41.6-100.2,62c-5.5,3.4-12.1,5-18.1,7.4C131.6,463,131.5,462.6,131.3,462.1z"/>
</g>
</svg>
