<?xml version="1.0" encoding="utf-8"?>
<!-- Generator: Adobe Illustrator 21.0.1, SVG Export Plug-In . SVG Version: 6.00 Build 0)  -->
<svg version="1.1" id="Слой_1" xmlns="http://www.w3.org/2000/svg" xmlns:xlink="http://www.w3.org/1999/xlink" x="0px" y="0px"
	 viewBox="0 0 512 512" style="enable-background:new 0 0 512 512;" xml:space="preserve">
<style type="text/css">
	.st0{fill:#4C4C4C;}
</style>
<g>
	<path class="st0" d="M156.3,202.1c-6.5,0-12.1,0-18.3,0c-0.1,2.5-0.3,4.7-0.3,7c0,80.8,0,161.7,0,242.5c0,8.2-0.8,9.3-8.8,11.3
		c-12.7,3.1-25.4,2.6-38.1-0.3c-6.1-1.4-7.6-3.4-7.6-9.8c0-45.3,0-90.7,0-136c0-36.3-0.1-72.7,0.1-109c0-4.9-1.4-6.6-6.2-6
		c-3,0.3-6,0.1-9,0c-5.4-0.2-8.8-3.2-8.9-8.7c-0.2-14.3-0.2-28.7,0-43c0.1-5.5,3.3-8.1,9.7-8.2c23.8-0.1,47.7,0,71.5,0
		c99.8,0,199.7,0,299.5,0c2,0,4,0,6,0.1c5.6,0.4,8.6,3.3,8.6,8.9c0.1,13.8,0.1,27.7,0,41.5c0,6-3.4,9.3-9.3,9.4c-5,0.1-9.9,0-15.4,0
		c-0.1,2.3-0.3,4.1-0.3,5.8c0,14.2,0,28.3,0,42.5c0,6.5-1.4,8.1-7.6,9.7c-13.4,3.3-26.7,2.6-40.1-0.2c-4.8-1-6.8-4-6.8-9
		c0.1-14.2,0-28.3,0-42.5c0-1.8,0-3.6,0-6.2c-5.7,0-10.9-0.2-16.2,0.2c-0.9,0.1-2.3,2.5-2.3,3.9c-0.2,10-0.1,20-0.1,30
		c0,17.3,0,34.7,0,52c0,6.5-1.3,8.2-7.5,9.8c-13.5,3.4-27,2.6-40.5-0.4c-5-1.1-6.4-4.5-6.4-9.2c0.1-26.5,0-53,0-79.5
		c0-2,0-3.9,0-6.3c-6.2,0-12,0-18.3,0c-0.1,2.1-0.3,4.2-0.3,6.3c0,40.2,0,80.3,0,120.5c0,7.8-1.1,9.2-8.6,10.9
		c-13.1,3.1-26.1,2.3-39.1-0.5c-5.1-1.1-6.8-4.4-6.8-9.4c0.1-40.3,0.1-80.7,0.1-121c0-2.1,0-4.3,0-6.8c-6.2,0-11.9,0-18.3,0
		c-0.1,2.1-0.3,4.2-0.3,6.3c0,61.2,0,122.3,0,183.5c0,8-1.1,9.7-8.8,11.3c-13.2,2.8-26.5,2.3-39.6-0.8c-4.7-1.1-6.1-4.5-6-9
		c0.1-23.2,0-46.3,0-69.5c0-38.5,0-77,0-115.5C156.3,206.5,156.3,204.6,156.3,202.1z"/>
	<path class="st0" d="M229.3,125.5c0-10,0-19.6,0-29.2c0-11.8,0.1-23.6,0-35.5c-0.1-5.1,2-8.1,7.1-9.2c13.7-3.1,27.3-3.3,41,0.1
		c4.4,1.1,6.5,3.6,6.4,8.1c0,21.1,0,42.3,0,63.4c0,0.6-0.2,1.3-0.3,2.3C265.6,125.5,247.8,125.5,229.3,125.5z"/>
	<path class="st0" d="M356.7,125.6c-18.3,0-36.1,0-54.2,0c-0.1-1.8-0.3-3.5-0.3-5.1c0-19.7,0-39.3,0-59c0-6.8,1.5-8.8,8.2-10.3
		c13.2-3,26.4-2.8,39.5,0.3c4,0.9,6.6,3.1,6.7,7.5C356.7,81,356.7,103,356.7,125.6z"/>
	<path class="st0" d="M429.7,125.6c-18.3,0-36.1,0-54.1,0c-0.1-1.7-0.3-3.1-0.3-4.6c0-19.8,0-39.6,0-59.5c0-6.9,1.5-8.8,8.2-10.2
		c12.7-2.7,25.4-3.1,38.1-0.1c6.6,1.5,8.1,3.2,8.1,9.8C429.7,82.3,429.7,103.6,429.7,125.6z"/>
	<path class="st0" d="M210.5,125.5c-18,0-35.7,0-53.9,0c-0.1-1.5-0.3-2.9-0.3-4.4c0-20,0-39.9,0-59.9c0-6.6,1.7-8.6,8-9.8
		c12.9-2.4,25.7-2.9,38.6,0c6.2,1.3,7.7,3.2,7.8,9.6c0,20.1,0,40.3,0,60.4C210.7,122.6,210.6,123.9,210.5,125.5z"/>
	<path class="st0" d="M137.3,125.5c-18.1,0-35.8,0-54,0c0-5.3,0-10.2,0-15.2c0-16.5,0-32.9,0-49.4c0-6.2,1.8-8.5,7.8-9.6
		c13-2.3,26.1-2.2,39.2,0.1c4.7,0.8,7.5,3.2,7.5,8.3c-0.1,21.3,0,42.6-0.1,63.9C137.7,124.1,137.5,124.6,137.3,125.5z"/>
</g>
</svg>
