<?xml version="1.0" encoding="utf-8"?>
<!-- Generator: Adobe Illustrator 21.0.1, SVG Export Plug-In . SVG Version: 6.00 Build 0)  -->
<svg version="1.1" id="Слой_1" xmlns="http://www.w3.org/2000/svg" xmlns:xlink="http://www.w3.org/1999/xlink" x="0px" y="0px"
	 viewBox="0 0 512 512" style="enable-background:new 0 0 512 512;" xml:space="preserve">
<style type="text/css">
	.st0{fill:#4C4C4C;}
</style>
<g>
	<path class="st0" d="M198.6,365.1c-31.3-31.4-61.7-61.8-92.5-92.6c2.4-2.4,5-5.2,7.7-7.8c8.5-8.3,11.7-18.3,9.8-30
		c-1.3-8.4,3.6-15.8,13-19.5c21.2-8.3,42.5-16.5,63.7-24.7c64.5-25,129-50,193.5-74.9c34.8-13.4,76.7,11.2,82,48.3
		c5.1,35.3-16.1,65.5-51.1,72.3c-12.4,2.4-24.5-0.4-36.6-2.8c-4.7-1-9.6-1.5-14.2-2.9c-3.7-1.1-5.4,0.3-7.4,2.9
		c-26.1,35-52.3,69.9-78.5,104.8c-7.5,10-13.8,11.9-25.5,7.9c-12.5-4.2-25.3-5.3-37.7-0.6c-6.7,2.5-12.7,6.9-18.6,11.1
		C203.2,358.8,201.1,362.3,198.6,365.1z"/>
	<path class="st0" d="M126.2,322c7.4,7.4,15.1,15.2,22.5,22.7c-17.6,17.6-35.5,35.4-53.1,53c-7.3-7.3-15-15.2-22.4-22.6
		C90.5,357.7,108.4,339.8,126.2,322z"/>
	<path class="st0" d="M109.3,410.9c17.2-17.1,35.1-34.9,52.6-52.3c6.6,6.6,13.7,13.7,20.5,20.5c-17.3,17.2-35.1,35-52.5,52.4
		C123.3,424.9,116.2,417.9,109.3,410.9z"/>
	<path class="st0" d="M59,361.4c-6.5-6.5-13.4-13.4-19.7-19.6c17.6-17.5,35.5-35.4,53.3-53.2c5.9,6,12.9,13.1,19.6,20
		C94.8,325.8,76.9,343.6,59,361.4z"/>
	<path class="st0" d="M239.8,147.6c-0.2,4.6-3.5,10-10.2,13c-4.5,2.1-9.2,3.8-13.9,5.4c-8.5,2.7-17.6-1.5-21.1-9.6
		c-3.5-7.9-0.9-17.8,6.7-21.8c5.7-3,11.8-5.6,18-7.1C230,125,239.9,133.7,239.8,147.6z"/>
	<path class="st0" d="M280.7,104.1c10.1,0,17.1,5.5,18.9,13.3c1.8,7.9-1.8,16.2-9.2,19.7c-4.9,2.3-10.1,4.3-15.3,5.9
		c-7.8,2.4-16-1.4-19.8-8.6c-3.8-7.2-2.5-16.4,3.8-21.3C265.8,107.8,274,105.5,280.7,104.1z"/>
	<path class="st0" d="M179.8,170.3c-0.2,5-3.4,10.5-10.1,13.5c-4.5,2.1-9.2,3.9-13.9,5.4c-9,2.9-18.3-1.8-21.6-10.4
		c-3.3-8.5,0.3-18,8.6-22c4.8-2.3,9.8-4.2,14.9-5.7C168.9,147.8,179.8,156.2,179.8,170.3z"/>
	<path class="st0" d="M359.9,98.5c0,6.3-2.6,11.6-8.1,14.5c-5.7,2.9-11.8,5.4-18.1,6.9c-8.6,2.1-16.7-3-19.6-11.4
		c-2.8-8.2,0.6-17.3,8.5-21.1c4.8-2.3,9.7-4.4,14.8-5.8C349.2,78.1,360,86.4,359.9,98.5z"/>
</g>
</svg>
