<?xml version="1.0" encoding="utf-8"?>
<!-- Generator: Adobe Illustrator 21.0.1, SVG Export Plug-In . SVG Version: 6.00 Build 0)  -->
<svg version="1.1" id="Слой_1" xmlns="http://www.w3.org/2000/svg" xmlns:xlink="http://www.w3.org/1999/xlink" x="0px" y="0px"
	 viewBox="0 0 512 512" style="enable-background:new 0 0 512 512;" xml:space="preserve">
<style type="text/css">
	.st0{fill:#4C4C4C;}
</style>
<g>
	<path class="st0" d="M273.2,189.1c-1.5,1.6-2.5,2.8-3.7,3.9c-17,16.7-34,33.4-51.2,49.9c-2,1.9-5,3.3-7.7,3.8
		c-21.9,4.5-40.9,24.8-39,51.8c1.5,22.3,20.6,42.1,43.3,43.8c26.5,2,48-14.7,52.4-40.8c0.2-1.4,0.8-3,1.8-3.9
		c17.4-17.8,34.8-35.4,52.2-53.1c1-1.1,1.8-2.4,3.2-4.3c6.1,10.3,9.7,20.1,11.3,30.7c4.1,26.1-6.1,46.2-26.6,61.6
		c-6.1,4.6-12.8,8.5-19.7,11.6c-13.4,6.1-19.8,16.2-22,30.8c-1.9,13-5,26.3-9.9,38.4c-11.3,28.1-33.4,43.6-62.9,48.6
		c-21.1,3.5-41.2-0.8-59.8-10.8c-35.4-18.9-62.2-46.3-77.1-83.8c-14.5-36.3-5.3-74.6,22.5-98.4c13.8-11.8,30.5-16.6,47.6-20.4
		c5.8-1.3,11.8-2.3,17.7-3.1c9.2-1.3,16.2-5.9,20.8-13.9c3.9-6.8,7.3-13.9,11.4-20.5c10.1-16.1,23.4-28.1,42.6-32.2
		C239.1,174.8,256.3,179.8,273.2,189.1z M182.4,419.3c5.3-0.8,8.7-3.1,10.7-7.4c2.2-4.8,1-9.2-2.6-12.8
		c-25.1-25.2-50.3-50.4-75.6-75.5c-5-5-11.4-5-16-0.5c-4.6,4.5-4.6,11.5,0.3,16.5c25,25.1,50.1,50.2,75.2,75.1
		C176.6,416.8,179.7,417.8,182.4,419.3z"/>
	<path class="st0" d="M367.4,119.6c-3.1-3.8-4.9-7.5-1.7-11.6c2.6-3.3,5.4-6.3,8.1-9.4c-5.5-8.8-5.9-12.8-1.9-16.9
		c3.9-3.9,8.8-3.7,16,1c2.1-2.3,4.1-4.6,6.2-6.9c-5.9-8.3-6.5-13.1-2.2-17.2c4.1-4,9.5-3.5,15.8,1.4c0.8-0.7,1.7-1.5,2.5-2.3
		c7.5-8,7.5-8.1,18-3.8c15.9,6.6,27.1,17.7,33,34c3,8.3,2.8,9.3-3.7,15.1c-1.1,1-2.3,1.9-3.4,2.8c5,8,5,13.1,0.4,16.9
		c-4.3,3.6-9.4,2.8-15.9-2.8c-2.3,2-4.6,4-6.9,6c4.3,9.1,4.2,13.1-0.3,16.7c-4.3,3.5-8.9,2.8-15.3-2.2c-6.9,2.7-10.8,15.5-21.5,6.3
		c-43,43.7-85.8,87.3-129.2,131.5c-5.8-14-15.3-23.7-29.5-29.4C280,205.4,323.6,162.6,367.4,119.6z M390.4,113.4
		c2.1-1.4,3.9-2.3,5.2-3.6c9.4-9.6,18.6-19.4,28-29.1c2.9-3,4.2-6.1,1.2-9.6c-2.5-2.8-6.2-2.1-9.9,1.6c-5.8,6-11.5,12-17.3,17.9
		c-3.8,4-7.9,7.7-11.2,12c-1.3,1.6-1.6,4.7-1,6.8C385.8,111,388.4,111.9,390.4,113.4z M406.5,130.4c2.3-1.3,4.4-1.9,5.9-3.3
		c10-9.5,19.9-19.1,29.9-28.7c2.9-2.8,3.8-6.1,0.7-9.1c-2.9-2.8-6-2-8.8,0.6c-3.7,3.6-7.4,7.1-11.2,10.7
		c-6.3,6.1-12.9,12.1-18.9,18.5c-1.5,1.6-2,4.7-1.8,7.1C402.4,127.6,404.7,128.8,406.5,130.4z"/>
	<path class="st0" d="M251.7,294.3c0,17.6-14.4,32.2-32.1,32.2c-17.6,0.1-32-14.5-31.9-32.3c0.1-17.6,14.1-31.8,31.7-32
		C236.9,262.1,251.7,276.8,251.7,294.3z"/>
</g>
</svg>
